<svg width="108" height="40" viewBox="0 0 108 40" fill="none" xmlns="http://www.w3.org/2000/svg">
<path d="M40.511 5.865H36.555L30.506 23H33.772L35.037 19.297H42.052L43.317 23H46.583L40.511 5.865ZM35.934 16.606L38.556 8.993L41.155 16.606H35.934ZM55.2348 23.276C58.9608 23.276 61.4678 21.275 61.4678 18.262C61.4678 15.939 60.0188 14.421 57.1208 13.547L53.7858 12.535C52.4978 12.167 51.7388 11.431 51.7388 10.419C51.7388 9.177 52.9118 8.28 54.7058 8.28C56.6378 8.28 58.1328 9.315 58.7538 11.086L61.3988 9.867C60.5018 7.429 57.9718 5.589 54.6828 5.589C51.0948 5.589 48.6338 7.613 48.6338 10.557C48.6338 12.765 50.0368 14.467 52.9348 15.341L56.3848 16.399C57.5808 16.767 58.3858 17.319 58.3858 18.469C58.3858 19.665 57.1668 20.585 55.2348 20.585C53.3028 20.585 51.5318 19.435 50.6808 17.319L48.0588 18.515C48.9788 21.344 51.8308 23.276 55.2348 23.276ZM70.6879 23.276C74.4139 23.276 76.9209 21.275 76.9209 18.262C76.9209 15.939 75.4719 14.421 72.5739 13.547L69.2389 12.535C67.9509 12.167 67.1919 11.431 67.1919 10.419C67.1919 9.177 68.3649 8.28 70.1589 8.28C72.0909 8.28 73.5859 9.315 74.2069 11.086L76.8519 9.867C75.9549 7.429 73.4249 5.589 70.1359 5.589C66.5479 5.589 64.0869 7.613 64.0869 10.557C64.0869 12.765 65.4899 14.467 68.3879 15.341L71.8379 16.399C73.0339 16.767 73.8389 17.319 73.8389 18.469C73.8389 19.665 72.6199 20.585 70.6879 20.585C68.7559 20.585 66.9849 19.435 66.1339 17.319L63.5119 18.515C64.4319 21.344 67.2839 23.276 70.6879 23.276ZM79.77 23H91.316L91.339 20.309H82.852V15.755H90.879V13.064H82.852V8.556H91.339V5.865H79.77V23ZM97.9336 23H101.016V8.556H105.524V5.865H93.3796V8.556H97.9336V23Z" fill="#237BFF"/>
<path d="M30.944 35H31.968V31.528H32.984V30.608H31.968V30.416C31.968 29.976 32.256 29.752 32.728 29.752C32.8 29.752 32.928 29.76 33.04 29.776V28.896C32.928 28.872 32.728 28.856 32.6 28.856C31.608 28.856 30.944 29.416 30.944 30.416V30.608H30.136V31.528H30.944V35ZM35.7334 35.096C37.0294 35.096 38.0694 34.128 38.0694 32.8C38.0694 31.48 37.0374 30.512 35.7334 30.512C34.4374 30.512 33.4054 31.48 33.4054 32.8C33.4054 34.128 34.4374 35.096 35.7334 35.096ZM35.7334 34.16C34.9974 34.16 34.4694 33.592 34.4694 32.808C34.4694 32.024 34.9974 31.456 35.7334 31.456C36.4694 31.456 37.0054 32.024 37.0054 32.808C37.0054 33.592 36.4694 34.16 35.7334 34.16ZM41.1192 30.56C40.5512 30.56 40.1032 30.744 39.8632 31.248V30.608H38.9032V35H39.9272V32.544C39.9272 31.864 40.3592 31.472 40.9992 31.472H41.5512V30.56H41.1192ZM48.1431 29.04L46.6071 33.84L45.0711 29.04H43.8791L45.8711 35H47.3431L49.3351 29.04H48.1431ZM50.0198 30.032H51.0438V28.968H50.0198V30.032ZM50.0198 35H51.0438V30.608H50.0198V35ZM54.3067 30.56C53.7387 30.56 53.2907 30.744 53.0507 31.248V30.608H52.0907V35H53.1147V32.544C53.1147 31.864 53.5467 31.472 54.1867 31.472H54.7387V30.56H54.3067ZM57.6783 35.048C57.8463 35.048 58.0383 35.032 58.1983 35.008V34.192C58.0943 34.208 57.9663 34.216 57.9023 34.216C57.2383 34.216 57.1023 33.864 57.1023 33.512V31.536H58.1743V30.624H57.1023V29.32H56.0783V29.96C56.0783 30.384 55.8303 30.624 55.3983 30.624H55.2623V31.536H56.0783V33.512C56.0783 34.48 56.6623 35.048 57.6783 35.048ZM61.8442 30.608V33.208C61.8442 33.784 61.4522 34.16 60.9082 34.16C60.3562 34.16 59.9722 33.784 59.9722 33.208V30.608H58.9482V33.32C58.9482 34.344 59.6522 35.096 60.6442 35.096C61.1882 35.096 61.6602 34.88 61.9002 34.48V35H62.8682V30.608H61.8442ZM65.7664 30.512C64.8704 30.512 64.1184 30.976 63.8624 31.664L64.7504 32.096C64.9024 31.688 65.2864 31.424 65.7584 31.424C66.2384 31.424 66.5824 31.68 66.5824 32.072V32.216L65.2384 32.448C64.2144 32.616 63.6944 33.152 63.6944 33.8C63.6944 34.536 64.3344 35.096 65.3184 35.096C65.8544 35.096 66.3104 34.904 66.6384 34.52V35H67.6064V32.072C67.6064 31.144 66.8384 30.512 65.7664 30.512ZM65.4464 34.304C65.0384 34.304 64.7584 34.12 64.7584 33.76C64.7584 33.528 64.9184 33.28 65.3824 33.192L66.5824 32.976V33.248C66.5824 33.84 66.0944 34.304 65.4464 34.304ZM68.5204 35H69.5444V28.944H68.5204V35ZM74.8476 35.096C76.1436 35.096 77.0156 34.4 77.0156 33.352C77.0156 32.544 76.5116 32.016 75.5036 31.712L74.3436 31.36C73.8956 31.232 73.6316 30.976 73.6316 30.624C73.6316 30.192 74.0396 29.88 74.6636 29.88C75.3356 29.88 75.8556 30.24 76.0716 30.856L76.9916 30.432C76.6796 29.584 75.7996 28.944 74.6556 28.944C73.4076 28.944 72.5516 29.648 72.5516 30.672C72.5516 31.44 73.0396 32.032 74.0476 32.336L75.2476 32.704C75.6636 32.832 75.9436 33.024 75.9436 33.424C75.9436 33.84 75.5196 34.16 74.8476 34.16C74.1756 34.16 73.5596 33.76 73.2636 33.024L72.3516 33.44C72.6716 34.424 73.6636 35.096 74.8476 35.096ZM79.9906 35.096C80.9346 35.096 81.7266 34.552 81.9826 33.824L81.1026 33.376C80.9346 33.848 80.5266 34.16 79.9906 34.16C79.2626 34.16 78.7506 33.584 78.7506 32.808C78.7506 32.008 79.2786 31.456 79.9826 31.456C80.5026 31.456 80.9346 31.76 81.1026 32.232L81.9826 31.8C81.7106 31.04 80.9266 30.512 79.9906 30.512C78.6706 30.512 77.6866 31.496 77.6866 32.8C77.6866 34.104 78.6786 35.096 79.9906 35.096ZM84.9713 30.52C84.4513 30.52 84.0113 30.704 83.7553 31.048V28.944H82.7313V35H83.7553V32.408C83.7553 31.832 84.1393 31.456 84.6913 31.456C85.2513 31.456 85.6273 31.84 85.6273 32.408V35H86.6513V32.16C86.6513 31.2 85.9553 30.52 84.9713 30.52ZM89.7256 35.096C91.0216 35.096 92.0616 34.128 92.0616 32.8C92.0616 31.48 91.0296 30.512 89.7256 30.512C88.4296 30.512 87.3976 31.48 87.3976 32.8C87.3976 34.128 88.4296 35.096 89.7256 35.096ZM89.7256 34.16C88.9896 34.16 88.4616 33.592 88.4616 32.808C88.4616 32.024 88.9896 31.456 89.7256 31.456C90.4616 31.456 90.9976 32.024 90.9976 32.808C90.9976 33.592 90.4616 34.16 89.7256 34.16ZM94.9834 35.096C96.2794 35.096 97.3194 34.128 97.3194 32.8C97.3194 31.48 96.2874 30.512 94.9834 30.512C93.6874 30.512 92.6554 31.48 92.6554 32.8C92.6554 34.128 93.6874 35.096 94.9834 35.096ZM94.9834 34.16C94.2474 34.16 93.7194 33.592 93.7194 32.808C93.7194 32.024 94.2474 31.456 94.9834 31.456C95.7194 31.456 96.2554 32.024 96.2554 32.808C96.2554 33.592 95.7194 34.16 94.9834 34.16ZM98.1532 35H99.1772V28.944H98.1532V35ZM101.975 35.096C102.999 35.096 103.711 34.552 103.711 33.76C103.711 33.16 103.295 32.704 102.519 32.496L101.711 32.28C101.487 32.208 101.183 32.096 101.183 31.808C101.183 31.536 101.447 31.36 101.847 31.36C102.351 31.36 102.743 31.608 102.911 32.016L103.703 31.648C103.431 30.944 102.727 30.512 101.847 30.512C100.847 30.512 100.175 31.056 100.175 31.848C100.175 32.448 100.559 32.896 101.351 33.104L102.119 33.304C102.375 33.376 102.703 33.488 102.703 33.792C102.703 34.08 102.407 34.272 101.975 34.272C101.439 34.272 101.007 34 100.775 33.488L99.9829 33.856C100.279 34.664 101.063 35.096 101.975 35.096Z" fill="#237BFF"/>
<path d="M25 27.0127C22.1138 27.6338 19.8066 28.7529 18 29.9956V5H25V27.0127Z" fill="#06CBAD"/>
<path d="M7 29.8496C5.20996 28.6445 2.9104 27.5708 0 26.9805V11H7V29.8496Z" fill="#FE466C"/>
<path d="M16 31.583C13.5222 33.8423 12.5 36 12.5 36C12.5 36 11.5466 33.7358 9 31.418V8H16V31.583Z" fill="#F6CD01"/>
<path fill-rule="evenodd" clip-rule="evenodd" d="M13.3647 20.5427L20.8186 13.71L22.1836 17.29L13.3647 24.2907L8.81926 21.124L2.18359 25.29L2.18364 24.71L8.81926 17.376L13.3647 20.5427Z" fill="white"/>
<path fill-rule="evenodd" clip-rule="evenodd" d="M20.2511 16.75L15.0011 14.75V14.25L23.7511 13.25L22.7511 22H22.2511L20.2511 16.75Z" fill="white"/>
</svg>
