<svg width="113" height="508" viewBox="0 0 113 508" fill="none" xmlns="http://www.w3.org/2000/svg">
<path d="M112.117 1.75726C111.63 1.75726 111.234 1.36388 111.234 0.878632C111.234 0.393379 111.63 -5.99011e-08 112.117 -3.8589e-08C112.605 -1.72769e-08 113 0.393379 113 0.878632C113 1.36388 112.605 1.75726 112.117 1.75726Z" fill="#D5C0FF"/>
<path d="M112.117 17.5726C111.63 17.5726 111.234 17.1792 111.234 16.6939C111.234 16.2087 111.63 15.8153 112.117 15.8153C112.605 15.8153 113 16.2087 113 16.6939C113 17.1792 112.605 17.5726 112.117 17.5726Z" fill="#D5C0FF"/>
<path d="M112.117 33.3879C111.63 33.3879 111.234 32.9945 111.234 32.5092C111.234 32.024 111.63 31.6306 112.117 31.6306C112.605 31.6306 113 32.024 113 32.5092C113 32.9945 112.605 33.3879 112.117 33.3879Z" fill="#D5C0FF"/>
<path d="M112.117 49.2032C111.63 49.2032 111.234 48.8098 111.234 48.3246C111.234 47.8393 111.63 47.4459 112.117 47.4459C112.605 47.4459 113 47.8393 113 48.3246C113 48.8098 112.605 49.2032 112.117 49.2032Z" fill="#D5C0FF"/>
<path d="M112.117 65.0185C111.63 65.0185 111.234 64.6251 111.234 64.1398C111.234 63.6546 111.63 63.2612 112.117 63.2612C112.605 63.2612 113 63.6546 113 64.1398C113 64.6251 112.605 65.0185 112.117 65.0185Z" fill="#D5C0FF"/>
<path d="M112.117 80.8338C111.63 80.8338 111.234 80.4404 111.234 79.9552C111.234 79.4699 111.63 79.0765 112.117 79.0765C112.605 79.0765 113 79.4699 113 79.9552C113 80.4404 112.605 80.8338 112.117 80.8338Z" fill="#D5C0FF"/>
<path d="M112.117 96.6491C111.63 96.6491 111.234 96.2557 111.234 95.7705C111.234 95.2852 111.63 94.8918 112.117 94.8918C112.605 94.8918 113 95.2852 113 95.7705C113 96.2557 112.605 96.6491 112.117 96.6491Z" fill="#D5C0FF"/>
<path d="M112.117 112.464C111.63 112.464 111.234 112.071 111.234 111.586C111.234 111.101 111.63 110.707 112.117 110.707C112.605 110.707 113 111.101 113 111.586C113 112.071 112.605 112.464 112.117 112.464Z" fill="#D5C0FF"/>
<path d="M112.117 128.28C111.63 128.28 111.234 127.886 111.234 127.401C111.234 126.916 111.63 126.522 112.117 126.522C112.605 126.522 113 126.916 113 127.401C113 127.886 112.605 128.28 112.117 128.28Z" fill="#D5C0FF"/>
<path d="M112.117 144.095C111.63 144.095 111.234 143.702 111.234 143.216C111.234 142.731 111.63 142.338 112.117 142.338C112.605 142.338 113 142.731 113 143.216C113 143.702 112.605 144.095 112.117 144.095Z" fill="#D5C0FF"/>
<path d="M112.117 159.91C111.63 159.91 111.234 159.517 111.234 159.032C111.234 158.546 111.63 158.153 112.117 158.153C112.605 158.153 113 158.546 113 159.032C113 159.517 112.605 159.91 112.117 159.91Z" fill="#D5C0FF"/>
<path d="M112.117 175.726C111.63 175.726 111.234 175.332 111.234 174.847C111.234 174.362 111.63 173.968 112.117 173.968C112.605 173.968 113 174.362 113 174.847C113 175.332 112.605 175.726 112.117 175.726Z" fill="#D5C0FF"/>
<path d="M112.117 191.541C111.63 191.541 111.234 191.148 111.234 190.662C111.234 190.177 111.63 189.784 112.117 189.784C112.605 189.784 113 190.177 113 190.662C113 191.148 112.605 191.541 112.117 191.541Z" fill="#D5C0FF"/>
<path d="M112.117 207.356C111.63 207.356 111.234 206.963 111.234 206.478C111.234 205.992 111.63 205.599 112.117 205.599C112.605 205.599 113 205.992 113 206.478C113 206.963 112.605 207.356 112.117 207.356Z" fill="#D5C0FF"/>
<path d="M112.117 223.172C111.63 223.172 111.234 222.778 111.234 222.293C111.234 221.808 111.63 221.414 112.117 221.414C112.605 221.414 113 221.808 113 222.293C113 222.778 112.605 223.172 112.117 223.172Z" fill="#D5C0FF"/>
<path d="M112.117 238.987C111.63 238.987 111.234 238.593 111.234 238.108C111.234 237.623 111.63 237.23 112.117 237.23C112.605 237.23 113 237.623 113 238.108C113 238.593 112.605 238.987 112.117 238.987Z" fill="#D5C0FF"/>
<path d="M112.117 254.802C111.63 254.802 111.234 254.409 111.234 253.923C111.234 253.438 111.63 253.045 112.117 253.045C112.605 253.045 113 253.438 113 253.923C113 254.409 112.605 254.802 112.117 254.802Z" fill="#D5C0FF"/>
<path d="M112.117 270.617C111.63 270.617 111.234 270.224 111.234 269.739C111.234 269.254 111.63 268.86 112.117 268.86C112.605 268.86 113 269.254 113 269.739C113 270.224 112.605 270.617 112.117 270.617Z" fill="#D5C0FF"/>
<path d="M112.117 286.433C111.63 286.433 111.234 286.039 111.234 285.554C111.234 285.069 111.63 284.675 112.117 284.675C112.605 284.675 113 285.069 113 285.554C113 286.039 112.605 286.433 112.117 286.433Z" fill="#D5C0FF"/>
<path d="M112.117 302.248C111.63 302.248 111.234 301.855 111.234 301.369C111.234 300.884 111.63 300.491 112.117 300.491C112.605 300.491 113 300.884 113 301.369C113 301.855 112.605 302.248 112.117 302.248Z" fill="#D5C0FF"/>
<path d="M112.117 318.063C111.63 318.063 111.234 317.67 111.234 317.185C111.234 316.699 111.63 316.306 112.117 316.306C112.605 316.306 113 316.699 113 317.185C113 317.67 112.605 318.063 112.117 318.063Z" fill="#D5C0FF"/>
<path d="M112.117 333.879C111.63 333.879 111.234 333.485 111.234 333C111.234 332.515 111.63 332.121 112.117 332.121C112.605 332.121 113 332.515 113 333C113 333.485 112.605 333.879 112.117 333.879Z" fill="#D5C0FF"/>
<path d="M112.117 349.694C111.63 349.694 111.234 349.301 111.234 348.815C111.234 348.33 111.63 347.937 112.117 347.937C112.605 347.937 113 348.33 113 348.815C113 349.301 112.605 349.694 112.117 349.694Z" fill="#D5C0FF"/>
<path d="M112.117 365.509C111.63 365.509 111.234 365.116 111.234 364.631C111.234 364.145 111.63 363.752 112.117 363.752C112.605 363.752 113 364.145 113 364.631C113 365.116 112.605 365.509 112.117 365.509Z" fill="#D5C0FF"/>
<path d="M112.117 381.325C111.63 381.325 111.234 380.931 111.234 380.446C111.234 379.961 111.63 379.567 112.117 379.567C112.605 379.567 113 379.961 113 380.446C113 380.931 112.605 381.325 112.117 381.325Z" fill="#D5C0FF"/>
<path d="M112.117 397.14C111.63 397.14 111.234 396.746 111.234 396.261C111.234 395.776 111.63 395.383 112.117 395.383C112.605 395.383 113 395.776 113 396.261C113 396.746 112.605 397.14 112.117 397.14Z" fill="#D5C0FF"/>
<path d="M112.117 412.955C111.63 412.955 111.234 412.562 111.234 412.077C111.234 411.591 111.63 411.198 112.117 411.198C112.605 411.198 113 411.591 113 412.077C113 412.562 112.605 412.955 112.117 412.955Z" fill="#D5C0FF"/>
<path d="M112.117 428.77C111.63 428.77 111.234 428.377 111.234 427.892C111.234 427.407 111.63 427.013 112.117 427.013C112.605 427.013 113 427.407 113 427.892C113 428.377 112.605 428.77 112.117 428.77Z" fill="#D5C0FF"/>
<path d="M112.117 444.586C111.63 444.586 111.234 444.192 111.234 443.707C111.234 443.222 111.63 442.829 112.117 442.829C112.605 442.829 113 443.222 113 443.707C113 444.192 112.605 444.586 112.117 444.586Z" fill="#D5C0FF"/>
<path d="M112.117 460.401C111.63 460.401 111.234 460.008 111.234 459.522C111.234 459.037 111.63 458.644 112.117 458.644C112.605 458.644 113 459.037 113 459.522C113 460.008 112.605 460.401 112.117 460.401Z" fill="#D5C0FF"/>
<path d="M112.117 476.216C111.63 476.216 111.234 475.823 111.234 475.338C111.234 474.853 111.63 474.459 112.117 474.459C112.605 474.459 113 474.853 113 475.338C113 475.823 112.605 476.216 112.117 476.216Z" fill="#D5C0FF"/>
<path d="M112.117 492.032C111.63 492.032 111.234 491.638 111.234 491.153C111.234 490.668 111.63 490.274 112.117 490.274C112.605 490.274 113 490.668 113 491.153C113 491.638 112.605 492.032 112.117 492.032Z" fill="#D5C0FF"/>
<path d="M112.117 507.847C111.63 507.847 111.234 507.454 111.234 506.968C111.234 506.483 111.63 506.09 112.117 506.09C112.605 506.09 113 506.483 113 506.968C113 507.454 112.605 507.847 112.117 507.847Z" fill="#D5C0FF"/>
<path d="M96.2266 1.75726C95.739 1.75726 95.3437 1.36388 95.3437 0.878631C95.3437 0.393378 95.739 -7.54502e-07 96.2266 -7.3319e-07C96.7141 -7.11878e-07 97.1094 0.393378 97.1094 0.878631C97.1094 1.36388 96.7141 1.75726 96.2266 1.75726Z" fill="#D5C0FF"/>
<path d="M96.2266 17.5726C95.739 17.5726 95.3437 17.1792 95.3437 16.6939C95.3437 16.2087 95.739 15.8153 96.2266 15.8153C96.7141 15.8153 97.1094 16.2087 97.1094 16.6939C97.1094 17.1792 96.7141 17.5726 96.2266 17.5726Z" fill="#D5C0FF"/>
<path d="M96.2266 33.3879C95.739 33.3879 95.3437 32.9945 95.3437 32.5092C95.3437 32.024 95.739 31.6306 96.2266 31.6306C96.7141 31.6306 97.1094 32.024 97.1094 32.5092C97.1094 32.9945 96.7141 33.3879 96.2266 33.3879Z" fill="#D5C0FF"/>
<path d="M96.2266 49.2032C95.739 49.2032 95.3437 48.8098 95.3437 48.3246C95.3437 47.8393 95.739 47.4459 96.2266 47.4459C96.7141 47.4459 97.1094 47.8393 97.1094 48.3246C97.1094 48.8098 96.7141 49.2032 96.2266 49.2032Z" fill="#D5C0FF"/>
<path d="M96.2266 65.0185C95.739 65.0185 95.3437 64.6251 95.3437 64.1398C95.3437 63.6546 95.739 63.2612 96.2266 63.2612C96.7141 63.2612 97.1094 63.6546 97.1094 64.1398C97.1094 64.6251 96.7141 65.0185 96.2266 65.0185Z" fill="#D5C0FF"/>
<path d="M96.2266 80.8338C95.739 80.8338 95.3437 80.4404 95.3437 79.9552C95.3437 79.4699 95.739 79.0765 96.2266 79.0765C96.7141 79.0765 97.1094 79.4699 97.1094 79.9552C97.1094 80.4404 96.7141 80.8338 96.2266 80.8338Z" fill="#D5C0FF"/>
<path d="M96.2266 96.6491C95.739 96.6491 95.3437 96.2557 95.3437 95.7705C95.3437 95.2852 95.739 94.8918 96.2266 94.8918C96.7141 94.8918 97.1094 95.2852 97.1094 95.7705C97.1094 96.2557 96.7141 96.6491 96.2266 96.6491Z" fill="#D5C0FF"/>
<path d="M96.2266 112.464C95.739 112.464 95.3437 112.071 95.3437 111.586C95.3437 111.101 95.739 110.707 96.2266 110.707C96.7141 110.707 97.1094 111.101 97.1094 111.586C97.1094 112.071 96.7141 112.464 96.2266 112.464Z" fill="#D5C0FF"/>
<path d="M96.2266 128.28C95.739 128.28 95.3437 127.886 95.3437 127.401C95.3437 126.916 95.739 126.522 96.2266 126.522C96.7141 126.522 97.1094 126.916 97.1094 127.401C97.1094 127.886 96.7141 128.28 96.2266 128.28Z" fill="#D5C0FF"/>
<path d="M96.2266 144.095C95.739 144.095 95.3437 143.702 95.3437 143.216C95.3437 142.731 95.739 142.338 96.2266 142.338C96.7141 142.338 97.1094 142.731 97.1094 143.216C97.1094 143.702 96.7141 144.095 96.2266 144.095Z" fill="#D5C0FF"/>
<path d="M96.2266 159.91C95.739 159.91 95.3437 159.517 95.3437 159.032C95.3437 158.546 95.739 158.153 96.2266 158.153C96.7141 158.153 97.1094 158.546 97.1094 159.032C97.1094 159.517 96.7141 159.91 96.2266 159.91Z" fill="#D5C0FF"/>
<path d="M96.2266 175.726C95.739 175.726 95.3437 175.332 95.3437 174.847C95.3437 174.362 95.739 173.968 96.2266 173.968C96.7141 173.968 97.1094 174.362 97.1094 174.847C97.1094 175.332 96.7141 175.726 96.2266 175.726Z" fill="#D5C0FF"/>
<path d="M96.2266 191.541C95.739 191.541 95.3437 191.148 95.3437 190.662C95.3437 190.177 95.739 189.784 96.2266 189.784C96.7141 189.784 97.1094 190.177 97.1094 190.662C97.1094 191.148 96.7141 191.541 96.2266 191.541Z" fill="#D5C0FF"/>
<path d="M96.2266 207.356C95.739 207.356 95.3437 206.963 95.3437 206.478C95.3437 205.992 95.739 205.599 96.2266 205.599C96.7141 205.599 97.1094 205.992 97.1094 206.478C97.1094 206.963 96.7141 207.356 96.2266 207.356Z" fill="#D5C0FF"/>
<path d="M96.2266 223.172C95.739 223.172 95.3437 222.778 95.3437 222.293C95.3437 221.808 95.739 221.414 96.2266 221.414C96.7141 221.414 97.1094 221.808 97.1094 222.293C97.1094 222.778 96.7141 223.172 96.2266 223.172Z" fill="#D5C0FF"/>
<path d="M96.2266 238.987C95.739 238.987 95.3437 238.593 95.3437 238.108C95.3437 237.623 95.739 237.23 96.2266 237.23C96.7141 237.23 97.1094 237.623 97.1094 238.108C97.1094 238.593 96.7141 238.987 96.2266 238.987Z" fill="#D5C0FF"/>
<path d="M96.2265 254.802C95.739 254.802 95.3437 254.409 95.3437 253.923C95.3437 253.438 95.739 253.045 96.2265 253.045C96.7141 253.045 97.1094 253.438 97.1094 253.923C97.1094 254.409 96.7141 254.802 96.2265 254.802Z" fill="#D5C0FF"/>
<path d="M96.2265 270.617C95.739 270.617 95.3437 270.224 95.3437 269.739C95.3437 269.254 95.739 268.86 96.2265 268.86C96.7141 268.86 97.1094 269.254 97.1094 269.739C97.1094 270.224 96.7141 270.617 96.2265 270.617Z" fill="#D5C0FF"/>
<path d="M96.2265 286.433C95.739 286.433 95.3437 286.039 95.3437 285.554C95.3437 285.069 95.739 284.675 96.2265 284.675C96.7141 284.675 97.1094 285.069 97.1094 285.554C97.1094 286.039 96.7141 286.433 96.2265 286.433Z" fill="#D5C0FF"/>
<path d="M96.2265 302.248C95.739 302.248 95.3437 301.855 95.3437 301.369C95.3437 300.884 95.739 300.491 96.2265 300.491C96.7141 300.491 97.1094 300.884 97.1094 301.369C97.1094 301.855 96.7141 302.248 96.2265 302.248Z" fill="#D5C0FF"/>
<path d="M96.2265 318.063C95.739 318.063 95.3437 317.67 95.3437 317.185C95.3437 316.699 95.739 316.306 96.2265 316.306C96.7141 316.306 97.1094 316.699 97.1094 317.185C97.1094 317.67 96.7141 318.063 96.2265 318.063Z" fill="#D5C0FF"/>
<path d="M96.2265 333.879C95.739 333.879 95.3437 333.485 95.3437 333C95.3437 332.515 95.739 332.121 96.2265 332.121C96.7141 332.121 97.1094 332.515 97.1094 333C97.1094 333.485 96.7141 333.879 96.2265 333.879Z" fill="#D5C0FF"/>
<path d="M96.2265 349.694C95.739 349.694 95.3437 349.301 95.3437 348.815C95.3437 348.33 95.739 347.937 96.2265 347.937C96.7141 347.937 97.1094 348.33 97.1094 348.815C97.1094 349.301 96.7141 349.694 96.2265 349.694Z" fill="#D5C0FF"/>
<path d="M96.2265 365.509C95.739 365.509 95.3437 365.116 95.3437 364.631C95.3437 364.145 95.739 363.752 96.2265 363.752C96.7141 363.752 97.1094 364.145 97.1094 364.631C97.1094 365.116 96.7141 365.509 96.2265 365.509Z" fill="#D5C0FF"/>
<path d="M96.2265 381.325C95.739 381.325 95.3437 380.931 95.3437 380.446C95.3437 379.961 95.739 379.567 96.2265 379.567C96.7141 379.567 97.1094 379.961 97.1094 380.446C97.1094 380.931 96.7141 381.325 96.2265 381.325Z" fill="#D5C0FF"/>
<path d="M96.2265 397.14C95.739 397.14 95.3437 396.746 95.3437 396.261C95.3437 395.776 95.739 395.383 96.2265 395.383C96.7141 395.383 97.1094 395.776 97.1094 396.261C97.1094 396.746 96.7141 397.14 96.2265 397.14Z" fill="#D5C0FF"/>
<path d="M96.2265 412.955C95.739 412.955 95.3437 412.562 95.3437 412.077C95.3437 411.591 95.739 411.198 96.2265 411.198C96.7141 411.198 97.1094 411.591 97.1094 412.077C97.1094 412.562 96.7141 412.955 96.2265 412.955Z" fill="#D5C0FF"/>
<path d="M96.2265 428.77C95.739 428.77 95.3437 428.377 95.3437 427.892C95.3437 427.407 95.739 427.013 96.2265 427.013C96.7141 427.013 97.1094 427.407 97.1094 427.892C97.1094 428.377 96.7141 428.77 96.2265 428.77Z" fill="#D5C0FF"/>
<path d="M96.2265 444.586C95.739 444.586 95.3437 444.192 95.3437 443.707C95.3437 443.222 95.739 442.829 96.2265 442.829C96.7141 442.829 97.1094 443.222 97.1094 443.707C97.1094 444.192 96.7141 444.586 96.2265 444.586Z" fill="#D5C0FF"/>
<path d="M96.2265 460.401C95.739 460.401 95.3437 460.008 95.3437 459.522C95.3437 459.037 95.739 458.644 96.2265 458.644C96.7141 458.644 97.1094 459.037 97.1094 459.522C97.1094 460.008 96.7141 460.401 96.2265 460.401Z" fill="#D5C0FF"/>
<path d="M96.2265 476.216C95.739 476.216 95.3437 475.823 95.3437 475.338C95.3437 474.853 95.739 474.459 96.2265 474.459C96.7141 474.459 97.1094 474.853 97.1094 475.338C97.1094 475.823 96.7141 476.216 96.2265 476.216Z" fill="#D5C0FF"/>
<path d="M96.2265 492.032C95.739 492.032 95.3437 491.638 95.3437 491.153C95.3437 490.668 95.739 490.274 96.2265 490.274C96.7141 490.274 97.1094 490.668 97.1094 491.153C97.1094 491.638 96.7141 492.032 96.2265 492.032Z" fill="#D5C0FF"/>
<path d="M96.2265 507.847C95.739 507.847 95.3437 507.454 95.3437 506.968C95.3437 506.483 95.739 506.09 96.2265 506.09C96.7141 506.09 97.1094 506.483 97.1094 506.968C97.1094 507.454 96.7141 507.847 96.2265 507.847Z" fill="#D5C0FF"/>
<path d="M80.3359 1.75726C79.8484 1.75726 79.4531 1.36388 79.4531 0.87863C79.4531 0.393377 79.8484 -1.4491e-06 80.3359 -1.42779e-06C80.8235 -1.40648e-06 81.2187 0.393377 81.2187 0.87863C81.2187 1.36388 80.8235 1.75726 80.3359 1.75726Z" fill="#D5C0FF"/>
<path d="M80.3359 17.5726C79.8484 17.5726 79.4531 17.1792 79.4531 16.6939C79.4531 16.2087 79.8484 15.8153 80.3359 15.8153C80.8235 15.8153 81.2187 16.2087 81.2187 16.6939C81.2187 17.1792 80.8235 17.5726 80.3359 17.5726Z" fill="#D5C0FF"/>
<path d="M80.3359 33.3879C79.8484 33.3879 79.4531 32.9945 79.4531 32.5092C79.4531 32.024 79.8484 31.6306 80.3359 31.6306C80.8235 31.6306 81.2187 32.024 81.2187 32.5092C81.2187 32.9945 80.8235 33.3879 80.3359 33.3879Z" fill="#D5C0FF"/>
<path d="M80.3359 49.2032C79.8484 49.2032 79.4531 48.8098 79.4531 48.3246C79.4531 47.8393 79.8484 47.4459 80.3359 47.4459C80.8235 47.4459 81.2187 47.8393 81.2187 48.3246C81.2187 48.8098 80.8235 49.2032 80.3359 49.2032Z" fill="#D5C0FF"/>
<path d="M80.3359 65.0185C79.8484 65.0185 79.4531 64.6251 79.4531 64.1398C79.4531 63.6546 79.8484 63.2612 80.3359 63.2612C80.8235 63.2612 81.2187 63.6546 81.2187 64.1398C81.2187 64.6251 80.8235 65.0185 80.3359 65.0185Z" fill="#D5C0FF"/>
<path d="M80.3359 80.8338C79.8484 80.8338 79.4531 80.4404 79.4531 79.9552C79.4531 79.4699 79.8484 79.0765 80.3359 79.0765C80.8235 79.0765 81.2187 79.4699 81.2187 79.9552C81.2187 80.4404 80.8235 80.8338 80.3359 80.8338Z" fill="#D5C0FF"/>
<path d="M80.3359 96.6491C79.8484 96.6491 79.4531 96.2557 79.4531 95.7705C79.4531 95.2852 79.8484 94.8918 80.3359 94.8918C80.8235 94.8918 81.2187 95.2852 81.2187 95.7705C81.2187 96.2557 80.8235 96.6491 80.3359 96.6491Z" fill="#D5C0FF"/>
<path d="M80.3359 112.464C79.8484 112.464 79.4531 112.071 79.4531 111.586C79.4531 111.101 79.8484 110.707 80.3359 110.707C80.8235 110.707 81.2187 111.101 81.2187 111.586C81.2187 112.071 80.8235 112.464 80.3359 112.464Z" fill="#D5C0FF"/>
<path d="M80.3359 128.28C79.8484 128.28 79.4531 127.886 79.4531 127.401C79.4531 126.916 79.8484 126.522 80.3359 126.522C80.8235 126.522 81.2187 126.916 81.2187 127.401C81.2187 127.886 80.8235 128.28 80.3359 128.28Z" fill="#D5C0FF"/>
<path d="M80.3359 144.095C79.8484 144.095 79.4531 143.702 79.4531 143.216C79.4531 142.731 79.8484 142.338 80.3359 142.338C80.8235 142.338 81.2187 142.731 81.2187 143.216C81.2187 143.702 80.8235 144.095 80.3359 144.095Z" fill="#D5C0FF"/>
<path d="M80.3359 159.91C79.8484 159.91 79.4531 159.517 79.4531 159.032C79.4531 158.546 79.8484 158.153 80.3359 158.153C80.8235 158.153 81.2187 158.546 81.2187 159.032C81.2187 159.517 80.8235 159.91 80.3359 159.91Z" fill="#D5C0FF"/>
<path d="M80.3359 175.726C79.8484 175.726 79.4531 175.332 79.4531 174.847C79.4531 174.362 79.8484 173.968 80.3359 173.968C80.8235 173.968 81.2187 174.362 81.2187 174.847C81.2187 175.332 80.8235 175.726 80.3359 175.726Z" fill="#D5C0FF"/>
<path d="M80.3359 191.541C79.8484 191.541 79.4531 191.148 79.4531 190.662C79.4531 190.177 79.8484 189.784 80.3359 189.784C80.8235 189.784 81.2187 190.177 81.2187 190.662C81.2187 191.148 80.8235 191.541 80.3359 191.541Z" fill="#D5C0FF"/>
<path d="M80.3359 207.356C79.8484 207.356 79.4531 206.963 79.4531 206.478C79.4531 205.992 79.8484 205.599 80.3359 205.599C80.8235 205.599 81.2187 205.992 81.2187 206.478C81.2187 206.963 80.8235 207.356 80.3359 207.356Z" fill="#D5C0FF"/>
<path d="M80.3359 223.172C79.8484 223.172 79.4531 222.778 79.4531 222.293C79.4531 221.808 79.8484 221.414 80.3359 221.414C80.8235 221.414 81.2187 221.808 81.2187 222.293C81.2187 222.778 80.8235 223.172 80.3359 223.172Z" fill="#D5C0FF"/>
<path d="M80.3359 238.987C79.8484 238.987 79.4531 238.593 79.4531 238.108C79.4531 237.623 79.8484 237.23 80.3359 237.23C80.8235 237.23 81.2187 237.623 81.2187 238.108C81.2187 238.593 80.8235 238.987 80.3359 238.987Z" fill="#D5C0FF"/>
<path d="M80.3359 254.802C79.8484 254.802 79.4531 254.409 79.4531 253.923C79.4531 253.438 79.8484 253.045 80.3359 253.045C80.8235 253.045 81.2187 253.438 81.2187 253.923C81.2187 254.409 80.8235 254.802 80.3359 254.802Z" fill="#D5C0FF"/>
<path d="M80.3359 270.617C79.8484 270.617 79.4531 270.224 79.4531 269.739C79.4531 269.254 79.8484 268.86 80.3359 268.86C80.8235 268.86 81.2187 269.254 81.2187 269.739C81.2187 270.224 80.8235 270.617 80.3359 270.617Z" fill="#D5C0FF"/>
<path d="M80.3359 286.433C79.8484 286.433 79.4531 286.039 79.4531 285.554C79.4531 285.069 79.8484 284.675 80.3359 284.675C80.8235 284.675 81.2187 285.069 81.2187 285.554C81.2187 286.039 80.8235 286.433 80.3359 286.433Z" fill="#D5C0FF"/>
<path d="M80.3359 302.248C79.8484 302.248 79.4531 301.855 79.4531 301.369C79.4531 300.884 79.8484 300.491 80.3359 300.491C80.8235 300.491 81.2187 300.884 81.2187 301.369C81.2187 301.855 80.8235 302.248 80.3359 302.248Z" fill="#D5C0FF"/>
<path d="M80.3359 318.063C79.8484 318.063 79.4531 317.67 79.4531 317.185C79.4531 316.699 79.8484 316.306 80.3359 316.306C80.8235 316.306 81.2187 316.699 81.2187 317.185C81.2187 317.67 80.8235 318.063 80.3359 318.063Z" fill="#D5C0FF"/>
<path d="M80.3359 333.879C79.8484 333.879 79.4531 333.485 79.4531 333C79.4531 332.515 79.8484 332.121 80.3359 332.121C80.8235 332.121 81.2187 332.515 81.2187 333C81.2187 333.485 80.8235 333.879 80.3359 333.879Z" fill="#D5C0FF"/>
<path d="M80.3359 349.694C79.8484 349.694 79.4531 349.301 79.4531 348.815C79.4531 348.33 79.8484 347.937 80.3359 347.937C80.8235 347.937 81.2187 348.33 81.2187 348.815C81.2187 349.301 80.8235 349.694 80.3359 349.694Z" fill="#D5C0FF"/>
<path d="M80.3359 365.509C79.8484 365.509 79.4531 365.116 79.4531 364.631C79.4531 364.145 79.8484 363.752 80.3359 363.752C80.8235 363.752 81.2187 364.145 81.2187 364.631C81.2187 365.116 80.8235 365.509 80.3359 365.509Z" fill="#D5C0FF"/>
<path d="M80.3359 381.325C79.8484 381.325 79.4531 380.931 79.4531 380.446C79.4531 379.961 79.8484 379.567 80.3359 379.567C80.8235 379.567 81.2187 379.961 81.2187 380.446C81.2187 380.931 80.8235 381.325 80.3359 381.325Z" fill="#D5C0FF"/>
<path d="M80.3359 397.14C79.8484 397.14 79.4531 396.746 79.4531 396.261C79.4531 395.776 79.8484 395.383 80.3359 395.383C80.8235 395.383 81.2187 395.776 81.2187 396.261C81.2187 396.746 80.8235 397.14 80.3359 397.14Z" fill="#D5C0FF"/>
<path d="M80.3359 412.955C79.8484 412.955 79.4531 412.562 79.4531 412.077C79.4531 411.591 79.8484 411.198 80.3359 411.198C80.8235 411.198 81.2187 411.591 81.2187 412.077C81.2187 412.562 80.8235 412.955 80.3359 412.955Z" fill="#D5C0FF"/>
<path d="M80.3359 428.77C79.8484 428.77 79.4531 428.377 79.4531 427.892C79.4531 427.407 79.8484 427.013 80.3359 427.013C80.8235 427.013 81.2187 427.407 81.2187 427.892C81.2187 428.377 80.8235 428.77 80.3359 428.77Z" fill="#D5C0FF"/>
<path d="M80.3359 444.586C79.8484 444.586 79.4531 444.192 79.4531 443.707C79.4531 443.222 79.8484 442.829 80.3359 442.829C80.8235 442.829 81.2187 443.222 81.2187 443.707C81.2187 444.192 80.8235 444.586 80.3359 444.586Z" fill="#D5C0FF"/>
<path d="M80.3359 460.401C79.8483 460.401 79.4531 460.008 79.4531 459.522C79.4531 459.037 79.8483 458.644 80.3359 458.644C80.8235 458.644 81.2187 459.037 81.2187 459.522C81.2187 460.008 80.8235 460.401 80.3359 460.401Z" fill="#D5C0FF"/>
<path d="M80.3359 476.216C79.8483 476.216 79.4531 475.823 79.4531 475.338C79.4531 474.853 79.8483 474.459 80.3359 474.459C80.8235 474.459 81.2187 474.853 81.2187 475.338C81.2187 475.823 80.8235 476.216 80.3359 476.216Z" fill="#D5C0FF"/>
<path d="M80.3359 492.032C79.8483 492.032 79.4531 491.638 79.4531 491.153C79.4531 490.668 79.8483 490.274 80.3359 490.274C80.8235 490.274 81.2187 490.668 81.2187 491.153C81.2187 491.638 80.8235 492.032 80.3359 492.032Z" fill="#D5C0FF"/>
<path d="M80.3359 507.847C79.8483 507.847 79.4531 507.454 79.4531 506.968C79.4531 506.483 79.8483 506.09 80.3359 506.09C80.8235 506.09 81.2187 506.483 81.2187 506.968C81.2187 507.454 80.8235 507.847 80.3359 507.847Z" fill="#D5C0FF"/>
<path d="M64.4453 1.75726C63.9577 1.75726 63.5625 1.36388 63.5625 0.878629C63.5625 0.393377 63.9577 -2.1437e-06 64.4453 -2.12239e-06C64.9329 -2.10108e-06 65.3281 0.393377 65.3281 0.87863C65.3281 1.36388 64.9329 1.75726 64.4453 1.75726Z" fill="#D5C0FF"/>
<path d="M64.4453 17.5726C63.9577 17.5726 63.5625 17.1792 63.5625 16.6939C63.5625 16.2087 63.9577 15.8153 64.4453 15.8153C64.9329 15.8153 65.3281 16.2087 65.3281 16.6939C65.3281 17.1792 64.9329 17.5726 64.4453 17.5726Z" fill="#D5C0FF"/>
<path d="M64.4453 33.3879C63.9577 33.3879 63.5625 32.9945 63.5625 32.5092C63.5625 32.024 63.9577 31.6306 64.4453 31.6306C64.9329 31.6306 65.3281 32.024 65.3281 32.5092C65.3281 32.9945 64.9329 33.3879 64.4453 33.3879Z" fill="#D5C0FF"/>
<path d="M64.4453 49.2032C63.9577 49.2032 63.5625 48.8098 63.5625 48.3246C63.5625 47.8393 63.9577 47.4459 64.4453 47.4459C64.9329 47.4459 65.3281 47.8393 65.3281 48.3246C65.3281 48.8098 64.9329 49.2032 64.4453 49.2032Z" fill="#D5C0FF"/>
<path d="M64.4453 65.0185C63.9577 65.0185 63.5625 64.6251 63.5625 64.1398C63.5625 63.6546 63.9577 63.2612 64.4453 63.2612C64.9329 63.2612 65.3281 63.6546 65.3281 64.1398C65.3281 64.6251 64.9329 65.0185 64.4453 65.0185Z" fill="#D5C0FF"/>
<path d="M64.4453 80.8338C63.9577 80.8338 63.5625 80.4404 63.5625 79.9552C63.5625 79.4699 63.9577 79.0765 64.4453 79.0765C64.9329 79.0765 65.3281 79.4699 65.3281 79.9552C65.3281 80.4404 64.9329 80.8338 64.4453 80.8338Z" fill="#D5C0FF"/>
<path d="M64.4453 96.6491C63.9577 96.6491 63.5625 96.2557 63.5625 95.7705C63.5625 95.2852 63.9577 94.8918 64.4453 94.8918C64.9329 94.8918 65.3281 95.2852 65.3281 95.7705C65.3281 96.2557 64.9329 96.6491 64.4453 96.6491Z" fill="#D5C0FF"/>
<path d="M64.4453 112.464C63.9577 112.464 63.5625 112.071 63.5625 111.586C63.5625 111.101 63.9577 110.707 64.4453 110.707C64.9329 110.707 65.3281 111.101 65.3281 111.586C65.3281 112.071 64.9329 112.464 64.4453 112.464Z" fill="#D5C0FF"/>
<path d="M64.4453 128.28C63.9577 128.28 63.5625 127.886 63.5625 127.401C63.5625 126.916 63.9577 126.522 64.4453 126.522C64.9329 126.522 65.3281 126.916 65.3281 127.401C65.3281 127.886 64.9329 128.28 64.4453 128.28Z" fill="#D5C0FF"/>
<path d="M64.4453 144.095C63.9577 144.095 63.5625 143.702 63.5625 143.216C63.5625 142.731 63.9577 142.338 64.4453 142.338C64.9329 142.338 65.3281 142.731 65.3281 143.216C65.3281 143.702 64.9329 144.095 64.4453 144.095Z" fill="#D5C0FF"/>
<path d="M64.4453 159.91C63.9577 159.91 63.5625 159.517 63.5625 159.032C63.5625 158.546 63.9577 158.153 64.4453 158.153C64.9329 158.153 65.3281 158.546 65.3281 159.032C65.3281 159.517 64.9329 159.91 64.4453 159.91Z" fill="#D5C0FF"/>
<path d="M64.4453 175.726C63.9577 175.726 63.5625 175.332 63.5625 174.847C63.5625 174.362 63.9577 173.968 64.4453 173.968C64.9329 173.968 65.3281 174.362 65.3281 174.847C65.3281 175.332 64.9329 175.726 64.4453 175.726Z" fill="#D5C0FF"/>
<path d="M64.4453 191.541C63.9577 191.541 63.5625 191.148 63.5625 190.662C63.5625 190.177 63.9577 189.784 64.4453 189.784C64.9329 189.784 65.3281 190.177 65.3281 190.662C65.3281 191.148 64.9329 191.541 64.4453 191.541Z" fill="#D5C0FF"/>
<path d="M64.4453 207.356C63.9577 207.356 63.5625 206.963 63.5625 206.478C63.5625 205.992 63.9577 205.599 64.4453 205.599C64.9329 205.599 65.3281 205.992 65.3281 206.478C65.3281 206.963 64.9329 207.356 64.4453 207.356Z" fill="#D5C0FF"/>
<path d="M64.4453 223.172C63.9577 223.172 63.5625 222.778 63.5625 222.293C63.5625 221.808 63.9577 221.414 64.4453 221.414C64.9329 221.414 65.3281 221.808 65.3281 222.293C65.3281 222.778 64.9329 223.172 64.4453 223.172Z" fill="#D5C0FF"/>
<path d="M64.4453 238.987C63.9577 238.987 63.5625 238.593 63.5625 238.108C63.5625 237.623 63.9577 237.23 64.4453 237.23C64.9329 237.23 65.3281 237.623 65.3281 238.108C65.3281 238.593 64.9329 238.987 64.4453 238.987Z" fill="#D5C0FF"/>
<path d="M64.4453 254.802C63.9577 254.802 63.5625 254.409 63.5625 253.923C63.5625 253.438 63.9577 253.045 64.4453 253.045C64.9329 253.045 65.3281 253.438 65.3281 253.923C65.3281 254.409 64.9329 254.802 64.4453 254.802Z" fill="#D5C0FF"/>
<path d="M64.4453 270.617C63.9577 270.617 63.5625 270.224 63.5625 269.739C63.5625 269.254 63.9577 268.86 64.4453 268.86C64.9329 268.86 65.3281 269.254 65.3281 269.739C65.3281 270.224 64.9329 270.617 64.4453 270.617Z" fill="#D5C0FF"/>
<path d="M64.4453 286.433C63.9577 286.433 63.5625 286.039 63.5625 285.554C63.5625 285.069 63.9577 284.675 64.4453 284.675C64.9329 284.675 65.3281 285.069 65.3281 285.554C65.3281 286.039 64.9329 286.433 64.4453 286.433Z" fill="#D5C0FF"/>
<path d="M64.4453 302.248C63.9577 302.248 63.5625 301.855 63.5625 301.369C63.5625 300.884 63.9577 300.491 64.4453 300.491C64.9329 300.491 65.3281 300.884 65.3281 301.369C65.3281 301.855 64.9329 302.248 64.4453 302.248Z" fill="#D5C0FF"/>
<path d="M64.4453 318.063C63.9577 318.063 63.5625 317.67 63.5625 317.185C63.5625 316.699 63.9577 316.306 64.4453 316.306C64.9329 316.306 65.3281 316.699 65.3281 317.185C65.3281 317.67 64.9329 318.063 64.4453 318.063Z" fill="#D5C0FF"/>
<path d="M64.4453 333.879C63.9577 333.879 63.5625 333.485 63.5625 333C63.5625 332.515 63.9577 332.121 64.4453 332.121C64.9329 332.121 65.3281 332.515 65.3281 333C65.3281 333.485 64.9329 333.879 64.4453 333.879Z" fill="#D5C0FF"/>
<path d="M64.4453 349.694C63.9577 349.694 63.5625 349.301 63.5625 348.815C63.5625 348.33 63.9577 347.937 64.4453 347.937C64.9329 347.937 65.3281 348.33 65.3281 348.815C65.3281 349.301 64.9329 349.694 64.4453 349.694Z" fill="#D5C0FF"/>
<path d="M64.4453 365.509C63.9577 365.509 63.5625 365.116 63.5625 364.631C63.5625 364.145 63.9577 363.752 64.4453 363.752C64.9329 363.752 65.3281 364.145 65.3281 364.631C65.3281 365.116 64.9329 365.509 64.4453 365.509Z" fill="#D5C0FF"/>
<path d="M64.4453 381.325C63.9577 381.325 63.5625 380.931 63.5625 380.446C63.5625 379.961 63.9577 379.567 64.4453 379.567C64.9329 379.567 65.3281 379.961 65.3281 380.446C65.3281 380.931 64.9329 381.325 64.4453 381.325Z" fill="#D5C0FF"/>
<path d="M64.4453 397.14C63.9577 397.14 63.5625 396.746 63.5625 396.261C63.5625 395.776 63.9577 395.383 64.4453 395.383C64.9329 395.383 65.3281 395.776 65.3281 396.261C65.3281 396.746 64.9329 397.14 64.4453 397.14Z" fill="#D5C0FF"/>
<path d="M64.4453 412.955C63.9577 412.955 63.5625 412.562 63.5625 412.077C63.5625 411.591 63.9577 411.198 64.4453 411.198C64.9329 411.198 65.3281 411.591 65.3281 412.077C65.3281 412.562 64.9329 412.955 64.4453 412.955Z" fill="#D5C0FF"/>
<path d="M64.4453 428.77C63.9577 428.77 63.5625 428.377 63.5625 427.892C63.5625 427.407 63.9577 427.013 64.4453 427.013C64.9329 427.013 65.3281 427.407 65.3281 427.892C65.3281 428.377 64.9329 428.77 64.4453 428.77Z" fill="#D5C0FF"/>
<path d="M64.4453 444.586C63.9577 444.586 63.5625 444.192 63.5625 443.707C63.5625 443.222 63.9577 442.829 64.4453 442.829C64.9329 442.829 65.3281 443.222 65.3281 443.707C65.3281 444.192 64.9329 444.586 64.4453 444.586Z" fill="#D5C0FF"/>
<path d="M64.4453 460.401C63.9577 460.401 63.5625 460.008 63.5625 459.522C63.5625 459.037 63.9577 458.644 64.4453 458.644C64.9329 458.644 65.3281 459.037 65.3281 459.522C65.3281 460.008 64.9329 460.401 64.4453 460.401Z" fill="#D5C0FF"/>
<path d="M64.4453 476.216C63.9577 476.216 63.5625 475.823 63.5625 475.338C63.5625 474.853 63.9577 474.459 64.4453 474.459C64.9329 474.459 65.3281 474.853 65.3281 475.338C65.3281 475.823 64.9329 476.216 64.4453 476.216Z" fill="#D5C0FF"/>
<path d="M64.4453 492.032C63.9577 492.032 63.5625 491.638 63.5625 491.153C63.5625 490.668 63.9577 490.274 64.4453 490.274C64.9329 490.274 65.3281 490.668 65.3281 491.153C65.3281 491.638 64.9329 492.032 64.4453 492.032Z" fill="#D5C0FF"/>
<path d="M64.4453 507.847C63.9577 507.847 63.5625 507.454 63.5625 506.968C63.5625 506.483 63.9577 506.09 64.4453 506.09C64.9329 506.09 65.3281 506.483 65.3281 506.968C65.3281 507.454 64.9329 507.847 64.4453 507.847Z" fill="#D5C0FF"/>
<path d="M48.5547 1.75726C48.0671 1.75726 47.6719 1.36388 47.6719 0.878629C47.6719 0.393376 48.0671 -2.83831e-06 48.5547 -2.81699e-06C49.0422 -2.79568e-06 49.4375 0.393376 49.4375 0.878629C49.4375 1.36388 49.0422 1.75726 48.5547 1.75726Z" fill="#D5C0FF"/>
<path d="M48.5547 17.5726C48.0671 17.5726 47.6719 17.1792 47.6719 16.6939C47.6719 16.2087 48.0671 15.8153 48.5547 15.8153C49.0422 15.8153 49.4375 16.2087 49.4375 16.6939C49.4375 17.1792 49.0422 17.5726 48.5547 17.5726Z" fill="#D5C0FF"/>
<path d="M48.5547 33.3879C48.0671 33.3879 47.6719 32.9945 47.6719 32.5092C47.6719 32.024 48.0671 31.6306 48.5547 31.6306C49.0422 31.6306 49.4375 32.024 49.4375 32.5092C49.4375 32.9945 49.0422 33.3879 48.5547 33.3879Z" fill="#D5C0FF"/>
<path d="M48.5547 49.2032C48.0671 49.2032 47.6719 48.8098 47.6719 48.3246C47.6719 47.8393 48.0671 47.4459 48.5547 47.4459C49.0422 47.4459 49.4375 47.8393 49.4375 48.3246C49.4375 48.8098 49.0422 49.2032 48.5547 49.2032Z" fill="#D5C0FF"/>
<path d="M48.5547 65.0185C48.0671 65.0185 47.6719 64.6251 47.6719 64.1398C47.6719 63.6546 48.0671 63.2612 48.5547 63.2612C49.0422 63.2612 49.4375 63.6546 49.4375 64.1398C49.4375 64.6251 49.0422 65.0185 48.5547 65.0185Z" fill="#D5C0FF"/>
<path d="M48.5547 80.8338C48.0671 80.8338 47.6719 80.4404 47.6719 79.9552C47.6719 79.4699 48.0671 79.0765 48.5547 79.0765C49.0422 79.0765 49.4375 79.4699 49.4375 79.9552C49.4375 80.4404 49.0422 80.8338 48.5547 80.8338Z" fill="#D5C0FF"/>
<path d="M48.5547 96.6491C48.0671 96.6491 47.6719 96.2557 47.6719 95.7705C47.6719 95.2852 48.0671 94.8918 48.5547 94.8918C49.0422 94.8918 49.4375 95.2852 49.4375 95.7705C49.4375 96.2557 49.0422 96.6491 48.5547 96.6491Z" fill="#D5C0FF"/>
<path d="M48.5547 112.464C48.0671 112.464 47.6719 112.071 47.6719 111.586C47.6719 111.101 48.0671 110.707 48.5547 110.707C49.0422 110.707 49.4375 111.101 49.4375 111.586C49.4375 112.071 49.0422 112.464 48.5547 112.464Z" fill="#D5C0FF"/>
<path d="M48.5547 128.28C48.0671 128.28 47.6719 127.886 47.6719 127.401C47.6719 126.916 48.0671 126.522 48.5547 126.522C49.0422 126.522 49.4375 126.916 49.4375 127.401C49.4375 127.886 49.0422 128.28 48.5547 128.28Z" fill="#D5C0FF"/>
<path d="M48.5547 144.095C48.0671 144.095 47.6719 143.702 47.6719 143.216C47.6719 142.731 48.0671 142.338 48.5547 142.338C49.0422 142.338 49.4375 142.731 49.4375 143.216C49.4375 143.702 49.0422 144.095 48.5547 144.095Z" fill="#D5C0FF"/>
<path d="M48.5547 159.91C48.0671 159.91 47.6719 159.517 47.6719 159.032C47.6719 158.546 48.0671 158.153 48.5547 158.153C49.0422 158.153 49.4375 158.546 49.4375 159.032C49.4375 159.517 49.0422 159.91 48.5547 159.91Z" fill="#D5C0FF"/>
<path d="M48.5547 175.726C48.0671 175.726 47.6719 175.332 47.6719 174.847C47.6719 174.362 48.0671 173.968 48.5547 173.968C49.0422 173.968 49.4375 174.362 49.4375 174.847C49.4375 175.332 49.0422 175.726 48.5547 175.726Z" fill="#D5C0FF"/>
<path d="M48.5547 191.541C48.0671 191.541 47.6719 191.148 47.6719 190.662C47.6719 190.177 48.0671 189.784 48.5547 189.784C49.0422 189.784 49.4375 190.177 49.4375 190.662C49.4375 191.148 49.0422 191.541 48.5547 191.541Z" fill="#D5C0FF"/>
<path d="M48.5547 207.356C48.0671 207.356 47.6719 206.963 47.6719 206.478C47.6719 205.992 48.0671 205.599 48.5547 205.599C49.0422 205.599 49.4375 205.992 49.4375 206.478C49.4375 206.963 49.0422 207.356 48.5547 207.356Z" fill="#D5C0FF"/>
<path d="M48.5547 223.172C48.0671 223.172 47.6719 222.778 47.6719 222.293C47.6719 221.808 48.0671 221.414 48.5547 221.414C49.0422 221.414 49.4375 221.808 49.4375 222.293C49.4375 222.778 49.0422 223.172 48.5547 223.172Z" fill="#D5C0FF"/>
<path d="M48.5547 238.987C48.0671 238.987 47.6719 238.593 47.6719 238.108C47.6719 237.623 48.0671 237.23 48.5547 237.23C49.0422 237.23 49.4375 237.623 49.4375 238.108C49.4375 238.593 49.0422 238.987 48.5547 238.987Z" fill="#D5C0FF"/>
<path d="M48.5547 254.802C48.0671 254.802 47.6719 254.409 47.6719 253.923C47.6719 253.438 48.0671 253.045 48.5547 253.045C49.0422 253.045 49.4375 253.438 49.4375 253.923C49.4375 254.409 49.0422 254.802 48.5547 254.802Z" fill="#D5C0FF"/>
<path d="M48.5547 270.617C48.0671 270.617 47.6719 270.224 47.6719 269.739C47.6719 269.254 48.0671 268.86 48.5547 268.86C49.0422 268.86 49.4375 269.254 49.4375 269.739C49.4375 270.224 49.0422 270.617 48.5547 270.617Z" fill="#D5C0FF"/>
<path d="M48.5547 286.433C48.0671 286.433 47.6719 286.039 47.6719 285.554C47.6719 285.069 48.0671 284.675 48.5547 284.675C49.0422 284.675 49.4375 285.069 49.4375 285.554C49.4375 286.039 49.0422 286.433 48.5547 286.433Z" fill="#D5C0FF"/>
<path d="M48.5547 302.248C48.0671 302.248 47.6719 301.855 47.6719 301.369C47.6719 300.884 48.0671 300.491 48.5547 300.491C49.0422 300.491 49.4375 300.884 49.4375 301.369C49.4375 301.855 49.0422 302.248 48.5547 302.248Z" fill="#D5C0FF"/>
<path d="M48.5547 318.063C48.0671 318.063 47.6719 317.67 47.6719 317.185C47.6719 316.699 48.0671 316.306 48.5547 316.306C49.0422 316.306 49.4375 316.699 49.4375 317.185C49.4375 317.67 49.0422 318.063 48.5547 318.063Z" fill="#D5C0FF"/>
<path d="M48.5547 333.879C48.0671 333.879 47.6719 333.485 47.6719 333C47.6719 332.515 48.0671 332.121 48.5547 332.121C49.0422 332.121 49.4375 332.515 49.4375 333C49.4375 333.485 49.0422 333.879 48.5547 333.879Z" fill="#D5C0FF"/>
<path d="M48.5547 349.694C48.0671 349.694 47.6719 349.301 47.6719 348.815C47.6719 348.33 48.0671 347.937 48.5547 347.937C49.0422 347.937 49.4375 348.33 49.4375 348.815C49.4375 349.301 49.0422 349.694 48.5547 349.694Z" fill="#D5C0FF"/>
<path d="M48.5547 365.509C48.0671 365.509 47.6719 365.116 47.6719 364.631C47.6719 364.145 48.0671 363.752 48.5547 363.752C49.0422 363.752 49.4375 364.145 49.4375 364.631C49.4375 365.116 49.0422 365.509 48.5547 365.509Z" fill="#D5C0FF"/>
<path d="M48.5547 381.325C48.0671 381.325 47.6719 380.931 47.6719 380.446C47.6719 379.961 48.0671 379.567 48.5547 379.567C49.0422 379.567 49.4375 379.961 49.4375 380.446C49.4375 380.931 49.0422 381.325 48.5547 381.325Z" fill="#D5C0FF"/>
<path d="M48.5547 397.14C48.0671 397.14 47.6719 396.746 47.6719 396.261C47.6719 395.776 48.0671 395.383 48.5547 395.383C49.0422 395.383 49.4375 395.776 49.4375 396.261C49.4375 396.746 49.0422 397.14 48.5547 397.14Z" fill="#D5C0FF"/>
<path d="M48.5547 412.955C48.0671 412.955 47.6718 412.562 47.6718 412.077C47.6718 411.591 48.0671 411.198 48.5547 411.198C49.0422 411.198 49.4375 411.591 49.4375 412.077C49.4375 412.562 49.0422 412.955 48.5547 412.955Z" fill="#D5C0FF"/>
<path d="M48.5547 428.77C48.0671 428.77 47.6718 428.377 47.6718 427.892C47.6718 427.407 48.0671 427.013 48.5547 427.013C49.0422 427.013 49.4375 427.407 49.4375 427.892C49.4375 428.377 49.0422 428.77 48.5547 428.77Z" fill="#D5C0FF"/>
<path d="M48.5547 444.586C48.0671 444.586 47.6718 444.192 47.6718 443.707C47.6718 443.222 48.0671 442.829 48.5547 442.829C49.0422 442.829 49.4375 443.222 49.4375 443.707C49.4375 444.192 49.0422 444.586 48.5547 444.586Z" fill="#D5C0FF"/>
<path d="M48.5547 460.401C48.0671 460.401 47.6718 460.008 47.6718 459.522C47.6718 459.037 48.0671 458.644 48.5547 458.644C49.0422 458.644 49.4375 459.037 49.4375 459.522C49.4375 460.008 49.0422 460.401 48.5547 460.401Z" fill="#D5C0FF"/>
<path d="M48.5547 476.216C48.0671 476.216 47.6718 475.823 47.6718 475.338C47.6718 474.853 48.0671 474.459 48.5547 474.459C49.0422 474.459 49.4375 474.853 49.4375 475.338C49.4375 475.823 49.0422 476.216 48.5547 476.216Z" fill="#D5C0FF"/>
<path d="M48.5547 492.032C48.0671 492.032 47.6718 491.638 47.6718 491.153C47.6718 490.668 48.0671 490.274 48.5547 490.274C49.0422 490.274 49.4375 490.668 49.4375 491.153C49.4375 491.638 49.0422 492.032 48.5547 492.032Z" fill="#D5C0FF"/>
<path d="M48.5547 507.847C48.0671 507.847 47.6718 507.454 47.6718 506.968C47.6718 506.483 48.0671 506.09 48.5547 506.09C49.0422 506.09 49.4375 506.483 49.4375 506.968C49.4375 507.454 49.0422 507.847 48.5547 507.847Z" fill="#D5C0FF"/>
<path d="M32.6641 1.75726C32.1765 1.75726 31.7812 1.36388 31.7812 0.878628C31.7812 0.393375 32.1765 -3.53291e-06 32.6641 -3.5116e-06C33.1516 -3.49028e-06 33.5469 0.393375 33.5469 0.878628C33.5469 1.36388 33.1516 1.75726 32.6641 1.75726Z" fill="#D5C0FF"/>
<path d="M32.6641 17.5726C32.1765 17.5726 31.7812 17.1792 31.7812 16.6939C31.7812 16.2087 32.1765 15.8153 32.6641 15.8153C33.1516 15.8153 33.5469 16.2087 33.5469 16.6939C33.5469 17.1792 33.1516 17.5726 32.6641 17.5726Z" fill="#D5C0FF"/>
<path d="M32.6641 33.3879C32.1765 33.3879 31.7812 32.9945 31.7812 32.5092C31.7812 32.024 32.1765 31.6306 32.6641 31.6306C33.1516 31.6306 33.5469 32.024 33.5469 32.5092C33.5469 32.9945 33.1516 33.3879 32.6641 33.3879Z" fill="#D5C0FF"/>
<path d="M32.6641 49.2032C32.1765 49.2032 31.7812 48.8098 31.7812 48.3246C31.7812 47.8393 32.1765 47.4459 32.6641 47.4459C33.1516 47.4459 33.5469 47.8393 33.5469 48.3246C33.5469 48.8098 33.1516 49.2032 32.6641 49.2032Z" fill="#D5C0FF"/>
<path d="M32.6641 65.0185C32.1765 65.0185 31.7812 64.6251 31.7812 64.1398C31.7812 63.6546 32.1765 63.2612 32.6641 63.2612C33.1516 63.2612 33.5469 63.6546 33.5469 64.1398C33.5469 64.6251 33.1516 65.0185 32.6641 65.0185Z" fill="#D5C0FF"/>
<path d="M32.6641 80.8338C32.1765 80.8338 31.7812 80.4404 31.7812 79.9552C31.7812 79.4699 32.1765 79.0765 32.6641 79.0765C33.1516 79.0765 33.5469 79.4699 33.5469 79.9552C33.5469 80.4404 33.1516 80.8338 32.6641 80.8338Z" fill="#D5C0FF"/>
<path d="M32.6641 96.6491C32.1765 96.6491 31.7812 96.2557 31.7812 95.7705C31.7812 95.2852 32.1765 94.8918 32.6641 94.8918C33.1516 94.8918 33.5469 95.2852 33.5469 95.7705C33.5469 96.2557 33.1516 96.6491 32.6641 96.6491Z" fill="#D5C0FF"/>
<path d="M32.664 112.464C32.1765 112.464 31.7812 112.071 31.7812 111.586C31.7812 111.101 32.1765 110.707 32.6641 110.707C33.1516 110.707 33.5469 111.101 33.5469 111.586C33.5469 112.071 33.1516 112.464 32.664 112.464Z" fill="#D5C0FF"/>
<path d="M32.664 128.28C32.1765 128.28 31.7812 127.886 31.7812 127.401C31.7812 126.916 32.1765 126.522 32.664 126.522C33.1516 126.522 33.5469 126.916 33.5469 127.401C33.5469 127.886 33.1516 128.28 32.664 128.28Z" fill="#D5C0FF"/>
<path d="M32.664 144.095C32.1765 144.095 31.7812 143.702 31.7812 143.216C31.7812 142.731 32.1765 142.338 32.664 142.338C33.1516 142.338 33.5469 142.731 33.5469 143.216C33.5469 143.702 33.1516 144.095 32.664 144.095Z" fill="#D5C0FF"/>
<path d="M32.664 159.91C32.1765 159.91 31.7812 159.517 31.7812 159.032C31.7812 158.546 32.1765 158.153 32.664 158.153C33.1516 158.153 33.5469 158.546 33.5469 159.032C33.5469 159.517 33.1516 159.91 32.664 159.91Z" fill="#D5C0FF"/>
<path d="M32.664 175.726C32.1765 175.726 31.7812 175.332 31.7812 174.847C31.7812 174.362 32.1765 173.968 32.664 173.968C33.1516 173.968 33.5469 174.362 33.5469 174.847C33.5469 175.332 33.1516 175.726 32.664 175.726Z" fill="#D5C0FF"/>
<path d="M32.664 191.541C32.1765 191.541 31.7812 191.148 31.7812 190.662C31.7812 190.177 32.1765 189.784 32.664 189.784C33.1516 189.784 33.5469 190.177 33.5469 190.662C33.5469 191.148 33.1516 191.541 32.664 191.541Z" fill="#D5C0FF"/>
<path d="M32.664 207.356C32.1765 207.356 31.7812 206.963 31.7812 206.478C31.7812 205.992 32.1765 205.599 32.664 205.599C33.1516 205.599 33.5469 205.992 33.5469 206.478C33.5469 206.963 33.1516 207.356 32.664 207.356Z" fill="#D5C0FF"/>
<path d="M32.664 223.172C32.1765 223.172 31.7812 222.778 31.7812 222.293C31.7812 221.808 32.1765 221.414 32.664 221.414C33.1516 221.414 33.5469 221.808 33.5469 222.293C33.5469 222.778 33.1516 223.172 32.664 223.172Z" fill="#D5C0FF"/>
<path d="M32.664 238.987C32.1765 238.987 31.7812 238.593 31.7812 238.108C31.7812 237.623 32.1765 237.23 32.664 237.23C33.1516 237.23 33.5469 237.623 33.5469 238.108C33.5469 238.593 33.1516 238.987 32.664 238.987Z" fill="#D5C0FF"/>
<path d="M32.664 254.802C32.1765 254.802 31.7812 254.409 31.7812 253.923C31.7812 253.438 32.1765 253.045 32.664 253.045C33.1516 253.045 33.5469 253.438 33.5469 253.923C33.5469 254.409 33.1516 254.802 32.664 254.802Z" fill="#D5C0FF"/>
<path d="M32.664 270.617C32.1765 270.617 31.7812 270.224 31.7812 269.739C31.7812 269.254 32.1765 268.86 32.664 268.86C33.1516 268.86 33.5469 269.254 33.5469 269.739C33.5469 270.224 33.1516 270.617 32.664 270.617Z" fill="#D5C0FF"/>
<path d="M32.664 286.433C32.1765 286.433 31.7812 286.039 31.7812 285.554C31.7812 285.069 32.1765 284.675 32.664 284.675C33.1516 284.675 33.5469 285.069 33.5469 285.554C33.5469 286.039 33.1516 286.433 32.664 286.433Z" fill="#D5C0FF"/>
<path d="M32.664 302.248C32.1765 302.248 31.7812 301.855 31.7812 301.369C31.7812 300.884 32.1765 300.491 32.664 300.491C33.1516 300.491 33.5469 300.884 33.5469 301.369C33.5469 301.855 33.1516 302.248 32.664 302.248Z" fill="#D5C0FF"/>
<path d="M32.664 318.063C32.1765 318.063 31.7812 317.67 31.7812 317.185C31.7812 316.699 32.1765 316.306 32.664 316.306C33.1516 316.306 33.5469 316.699 33.5469 317.185C33.5469 317.67 33.1516 318.063 32.664 318.063Z" fill="#D5C0FF"/>
<path d="M32.664 333.879C32.1765 333.879 31.7812 333.485 31.7812 333C31.7812 332.515 32.1765 332.121 32.664 332.121C33.1516 332.121 33.5469 332.515 33.5469 333C33.5469 333.485 33.1516 333.879 32.664 333.879Z" fill="#D5C0FF"/>
<path d="M32.664 349.694C32.1765 349.694 31.7812 349.301 31.7812 348.815C31.7812 348.33 32.1765 347.937 32.664 347.937C33.1516 347.937 33.5469 348.33 33.5469 348.815C33.5469 349.301 33.1516 349.694 32.664 349.694Z" fill="#D5C0FF"/>
<path d="M32.664 365.509C32.1765 365.509 31.7812 365.116 31.7812 364.631C31.7812 364.145 32.1765 363.752 32.664 363.752C33.1516 363.752 33.5469 364.145 33.5469 364.631C33.5469 365.116 33.1516 365.509 32.664 365.509Z" fill="#D5C0FF"/>
<path d="M32.664 381.325C32.1765 381.325 31.7812 380.931 31.7812 380.446C31.7812 379.961 32.1765 379.567 32.664 379.567C33.1516 379.567 33.5469 379.961 33.5469 380.446C33.5469 380.931 33.1516 381.325 32.664 381.325Z" fill="#D5C0FF"/>
<path d="M32.664 397.14C32.1765 397.14 31.7812 396.746 31.7812 396.261C31.7812 395.776 32.1765 395.383 32.664 395.383C33.1516 395.383 33.5469 395.776 33.5469 396.261C33.5469 396.746 33.1516 397.14 32.664 397.14Z" fill="#D5C0FF"/>
<path d="M32.664 412.955C32.1765 412.955 31.7812 412.562 31.7812 412.077C31.7812 411.591 32.1765 411.198 32.664 411.198C33.1516 411.198 33.5469 411.591 33.5469 412.077C33.5469 412.562 33.1516 412.955 32.664 412.955Z" fill="#D5C0FF"/>
<path d="M32.664 428.77C32.1765 428.77 31.7812 428.377 31.7812 427.892C31.7812 427.407 32.1765 427.013 32.664 427.013C33.1516 427.013 33.5469 427.407 33.5469 427.892C33.5469 428.377 33.1516 428.77 32.664 428.77Z" fill="#D5C0FF"/>
<path d="M32.664 444.586C32.1765 444.586 31.7812 444.192 31.7812 443.707C31.7812 443.222 32.1765 442.829 32.664 442.829C33.1516 442.829 33.5469 443.222 33.5469 443.707C33.5469 444.192 33.1516 444.586 32.664 444.586Z" fill="#D5C0FF"/>
<path d="M32.664 460.401C32.1765 460.401 31.7812 460.008 31.7812 459.522C31.7812 459.037 32.1765 458.644 32.664 458.644C33.1516 458.644 33.5469 459.037 33.5469 459.522C33.5469 460.008 33.1516 460.401 32.664 460.401Z" fill="#D5C0FF"/>
<path d="M32.664 476.216C32.1765 476.216 31.7812 475.823 31.7812 475.338C31.7812 474.853 32.1765 474.459 32.664 474.459C33.1516 474.459 33.5469 474.853 33.5469 475.338C33.5469 475.823 33.1516 476.216 32.664 476.216Z" fill="#D5C0FF"/>
<path d="M32.664 492.032C32.1765 492.032 31.7812 491.638 31.7812 491.153C31.7812 490.668 32.1765 490.274 32.664 490.274C33.1516 490.274 33.5469 490.668 33.5469 491.153C33.5469 491.638 33.1516 492.032 32.664 492.032Z" fill="#D5C0FF"/>
<path d="M32.664 507.847C32.1765 507.847 31.7812 507.454 31.7812 506.968C31.7812 506.483 32.1765 506.09 32.664 506.09C33.1516 506.09 33.5469 506.483 33.5469 506.968C33.5469 507.454 33.1516 507.847 32.664 507.847Z" fill="#D5C0FF"/>
<path d="M16.7734 1.75726C16.2859 1.75726 15.8906 1.36388 15.8906 0.878627C15.8906 0.393374 16.2859 -4.22751e-06 16.7734 -4.2062e-06C17.261 -4.18488e-06 17.6562 0.393375 17.6562 0.878627C17.6562 1.36388 17.261 1.75726 16.7734 1.75726Z" fill="#D5C0FF"/>
<path d="M16.7734 17.5726C16.2859 17.5726 15.8906 17.1792 15.8906 16.6939C15.8906 16.2087 16.2859 15.8153 16.7734 15.8153C17.261 15.8153 17.6562 16.2087 17.6562 16.6939C17.6562 17.1792 17.261 17.5726 16.7734 17.5726Z" fill="#D5C0FF"/>
<path d="M16.7734 33.3879C16.2859 33.3879 15.8906 32.9945 15.8906 32.5092C15.8906 32.024 16.2859 31.6306 16.7734 31.6306C17.261 31.6306 17.6562 32.024 17.6562 32.5092C17.6562 32.9945 17.261 33.3879 16.7734 33.3879Z" fill="#D5C0FF"/>
<path d="M16.7734 49.2032C16.2859 49.2032 15.8906 48.8098 15.8906 48.3246C15.8906 47.8393 16.2859 47.4459 16.7734 47.4459C17.261 47.4459 17.6562 47.8393 17.6562 48.3246C17.6562 48.8098 17.261 49.2032 16.7734 49.2032Z" fill="#D5C0FF"/>
<path d="M16.7734 65.0185C16.2859 65.0185 15.8906 64.6251 15.8906 64.1398C15.8906 63.6546 16.2859 63.2612 16.7734 63.2612C17.261 63.2612 17.6562 63.6546 17.6562 64.1398C17.6562 64.6251 17.261 65.0185 16.7734 65.0185Z" fill="#D5C0FF"/>
<path d="M16.7734 80.8338C16.2859 80.8338 15.8906 80.4404 15.8906 79.9552C15.8906 79.4699 16.2859 79.0765 16.7734 79.0765C17.261 79.0765 17.6562 79.4699 17.6562 79.9552C17.6562 80.4404 17.261 80.8338 16.7734 80.8338Z" fill="#D5C0FF"/>
<path d="M16.7734 96.6491C16.2859 96.6491 15.8906 96.2557 15.8906 95.7705C15.8906 95.2852 16.2859 94.8918 16.7734 94.8918C17.261 94.8918 17.6562 95.2852 17.6562 95.7705C17.6562 96.2557 17.261 96.6491 16.7734 96.6491Z" fill="#D5C0FF"/>
<path d="M16.7734 112.464C16.2859 112.464 15.8906 112.071 15.8906 111.586C15.8906 111.101 16.2859 110.707 16.7734 110.707C17.261 110.707 17.6562 111.101 17.6562 111.586C17.6562 112.071 17.261 112.464 16.7734 112.464Z" fill="#D5C0FF"/>
<path d="M16.7734 128.28C16.2859 128.28 15.8906 127.886 15.8906 127.401C15.8906 126.916 16.2859 126.522 16.7734 126.522C17.261 126.522 17.6562 126.916 17.6562 127.401C17.6562 127.886 17.261 128.28 16.7734 128.28Z" fill="#D5C0FF"/>
<path d="M16.7734 144.095C16.2859 144.095 15.8906 143.702 15.8906 143.216C15.8906 142.731 16.2859 142.338 16.7734 142.338C17.261 142.338 17.6562 142.731 17.6562 143.216C17.6562 143.702 17.261 144.095 16.7734 144.095Z" fill="#D5C0FF"/>
<path d="M16.7734 159.91C16.2859 159.91 15.8906 159.517 15.8906 159.032C15.8906 158.546 16.2859 158.153 16.7734 158.153C17.261 158.153 17.6562 158.546 17.6562 159.032C17.6562 159.517 17.261 159.91 16.7734 159.91Z" fill="#D5C0FF"/>
<path d="M16.7734 175.726C16.2859 175.726 15.8906 175.332 15.8906 174.847C15.8906 174.362 16.2859 173.968 16.7734 173.968C17.261 173.968 17.6562 174.362 17.6562 174.847C17.6562 175.332 17.261 175.726 16.7734 175.726Z" fill="#D5C0FF"/>
<path d="M16.7734 191.541C16.2859 191.541 15.8906 191.148 15.8906 190.662C15.8906 190.177 16.2859 189.784 16.7734 189.784C17.261 189.784 17.6562 190.177 17.6562 190.662C17.6562 191.148 17.261 191.541 16.7734 191.541Z" fill="#D5C0FF"/>
<path d="M16.7734 207.356C16.2859 207.356 15.8906 206.963 15.8906 206.478C15.8906 205.992 16.2859 205.599 16.7734 205.599C17.261 205.599 17.6562 205.992 17.6562 206.478C17.6562 206.963 17.261 207.356 16.7734 207.356Z" fill="#D5C0FF"/>
<path d="M16.7734 223.172C16.2859 223.172 15.8906 222.778 15.8906 222.293C15.8906 221.808 16.2859 221.414 16.7734 221.414C17.261 221.414 17.6562 221.808 17.6562 222.293C17.6562 222.778 17.261 223.172 16.7734 223.172Z" fill="#D5C0FF"/>
<path d="M16.7734 238.987C16.2859 238.987 15.8906 238.593 15.8906 238.108C15.8906 237.623 16.2859 237.23 16.7734 237.23C17.261 237.23 17.6562 237.623 17.6562 238.108C17.6562 238.593 17.261 238.987 16.7734 238.987Z" fill="#D5C0FF"/>
<path d="M16.7734 254.802C16.2859 254.802 15.8906 254.409 15.8906 253.923C15.8906 253.438 16.2859 253.045 16.7734 253.045C17.261 253.045 17.6562 253.438 17.6562 253.923C17.6562 254.409 17.261 254.802 16.7734 254.802Z" fill="#D5C0FF"/>
<path d="M16.7734 270.617C16.2859 270.617 15.8906 270.224 15.8906 269.739C15.8906 269.254 16.2859 268.86 16.7734 268.86C17.261 268.86 17.6562 269.254 17.6562 269.739C17.6562 270.224 17.261 270.617 16.7734 270.617Z" fill="#D5C0FF"/>
<path d="M16.7734 286.433C16.2859 286.433 15.8906 286.039 15.8906 285.554C15.8906 285.069 16.2859 284.675 16.7734 284.675C17.261 284.675 17.6562 285.069 17.6562 285.554C17.6562 286.039 17.261 286.433 16.7734 286.433Z" fill="#D5C0FF"/>
<path d="M16.7734 302.248C16.2859 302.248 15.8906 301.855 15.8906 301.369C15.8906 300.884 16.2859 300.491 16.7734 300.491C17.261 300.491 17.6562 300.884 17.6562 301.369C17.6562 301.855 17.261 302.248 16.7734 302.248Z" fill="#D5C0FF"/>
<path d="M16.7734 318.063C16.2859 318.063 15.8906 317.67 15.8906 317.185C15.8906 316.699 16.2859 316.306 16.7734 316.306C17.261 316.306 17.6562 316.699 17.6562 317.185C17.6562 317.67 17.261 318.063 16.7734 318.063Z" fill="#D5C0FF"/>
<path d="M16.7734 333.879C16.2859 333.879 15.8906 333.485 15.8906 333C15.8906 332.515 16.2859 332.121 16.7734 332.121C17.261 332.121 17.6562 332.515 17.6562 333C17.6562 333.485 17.261 333.879 16.7734 333.879Z" fill="#D5C0FF"/>
<path d="M16.7734 349.694C16.2859 349.694 15.8906 349.301 15.8906 348.815C15.8906 348.33 16.2859 347.937 16.7734 347.937C17.261 347.937 17.6562 348.33 17.6562 348.815C17.6562 349.301 17.261 349.694 16.7734 349.694Z" fill="#D5C0FF"/>
<path d="M16.7734 365.509C16.2858 365.509 15.8906 365.116 15.8906 364.631C15.8906 364.145 16.2858 363.752 16.7734 363.752C17.261 363.752 17.6562 364.145 17.6562 364.631C17.6562 365.116 17.261 365.509 16.7734 365.509Z" fill="#D5C0FF"/>
<path d="M16.7734 381.325C16.2858 381.325 15.8906 380.931 15.8906 380.446C15.8906 379.961 16.2858 379.567 16.7734 379.567C17.261 379.567 17.6562 379.961 17.6562 380.446C17.6562 380.931 17.261 381.325 16.7734 381.325Z" fill="#D5C0FF"/>
<path d="M16.7734 397.14C16.2858 397.14 15.8906 396.746 15.8906 396.261C15.8906 395.776 16.2858 395.383 16.7734 395.383C17.261 395.383 17.6562 395.776 17.6562 396.261C17.6562 396.746 17.261 397.14 16.7734 397.14Z" fill="#D5C0FF"/>
<path d="M16.7734 412.955C16.2858 412.955 15.8906 412.562 15.8906 412.077C15.8906 411.591 16.2858 411.198 16.7734 411.198C17.261 411.198 17.6562 411.591 17.6562 412.077C17.6562 412.562 17.261 412.955 16.7734 412.955Z" fill="#D5C0FF"/>
<path d="M16.7734 428.77C16.2858 428.77 15.8906 428.377 15.8906 427.892C15.8906 427.407 16.2858 427.013 16.7734 427.013C17.261 427.013 17.6562 427.407 17.6562 427.892C17.6562 428.377 17.261 428.77 16.7734 428.77Z" fill="#D5C0FF"/>
<path d="M16.7734 444.586C16.2858 444.586 15.8906 444.192 15.8906 443.707C15.8906 443.222 16.2858 442.829 16.7734 442.829C17.261 442.829 17.6562 443.222 17.6562 443.707C17.6562 444.192 17.261 444.586 16.7734 444.586Z" fill="#D5C0FF"/>
<path d="M16.7734 460.401C16.2858 460.401 15.8906 460.008 15.8906 459.522C15.8906 459.037 16.2858 458.644 16.7734 458.644C17.261 458.644 17.6562 459.037 17.6562 459.522C17.6562 460.008 17.261 460.401 16.7734 460.401Z" fill="#D5C0FF"/>
<path d="M16.7734 476.216C16.2858 476.216 15.8906 475.823 15.8906 475.338C15.8906 474.853 16.2858 474.459 16.7734 474.459C17.261 474.459 17.6562 474.853 17.6562 475.338C17.6562 475.823 17.261 476.216 16.7734 476.216Z" fill="#D5C0FF"/>
<path d="M16.7734 492.032C16.2858 492.032 15.8906 491.638 15.8906 491.153C15.8906 490.668 16.2858 490.274 16.7734 490.274C17.261 490.274 17.6562 490.668 17.6562 491.153C17.6562 491.638 17.261 492.032 16.7734 492.032Z" fill="#D5C0FF"/>
<path d="M16.7734 507.847C16.2858 507.847 15.8906 507.454 15.8906 506.968C15.8906 506.483 16.2858 506.09 16.7734 506.09C17.261 506.09 17.6562 506.483 17.6562 506.968C17.6562 507.454 17.261 507.847 16.7734 507.847Z" fill="#D5C0FF"/>
<path d="M0.882805 1.75726C0.395241 1.75726 -5.96173e-08 1.36388 -3.84062e-08 0.878627C-1.71951e-08 0.393374 0.395241 -4.92211e-06 0.882805 -4.9008e-06C1.37037 -4.87949e-06 1.76562 0.393374 1.76562 0.878627C1.76562 1.36388 1.37037 1.75726 0.882805 1.75726Z" fill="#D5C0FF"/>
<path d="M0.882804 17.5726C0.39524 17.5726 -7.50926e-07 17.1792 -7.29715e-07 16.6939C-7.08504e-07 16.2087 0.39524 15.8153 0.882804 15.8153C1.37037 15.8153 1.76562 16.2087 1.76562 16.6939C1.76562 17.1792 1.37037 17.5726 0.882804 17.5726Z" fill="#D5C0FF"/>
<path d="M0.882803 33.3879C0.395239 33.3879 -1.44224e-06 32.9945 -1.42102e-06 32.5092C-1.39981e-06 32.024 0.395239 31.6306 0.882803 31.6306C1.37037 31.6306 1.76562 32.024 1.76562 32.5092C1.76562 32.9945 1.37037 33.3879 0.882803 33.3879Z" fill="#D5C0FF"/>
<path d="M0.882803 49.2032C0.395239 49.2032 -2.13354e-06 48.8098 -2.11233e-06 48.3245C-2.09112e-06 47.8393 0.395239 47.4459 0.882803 47.4459C1.37037 47.4459 1.76562 47.8393 1.76562 48.3245C1.76562 48.8098 1.37037 49.2032 0.882803 49.2032Z" fill="#D5C0FF"/>
<path d="M0.882802 65.0185C0.395238 65.0185 -2.82485e-06 64.6251 -2.80364e-06 64.1398C-2.78243e-06 63.6546 0.395238 63.2612 0.882802 63.2612C1.37037 63.2612 1.76562 63.6546 1.76562 64.1398C1.76562 64.6251 1.37037 65.0185 0.882802 65.0185Z" fill="#D5C0FF"/>
<path d="M0.882801 80.8338C0.395237 80.8338 -3.51616e-06 80.4404 -3.49495e-06 79.9551C-3.47374e-06 79.4699 0.395237 79.0765 0.882801 79.0765C1.37037 79.0765 1.76562 79.4699 1.76562 79.9551C1.76562 80.4404 1.37037 80.8338 0.882801 80.8338Z" fill="#D5C0FF"/>
<path d="M0.882801 96.6491C0.395237 96.6491 -4.20747e-06 96.2557 -4.18626e-06 95.7705C-4.16505e-06 95.2852 0.395237 94.8918 0.882801 94.8918C1.37036 94.8918 1.76562 95.2852 1.76562 95.7705C1.76562 96.2557 1.37036 96.6491 0.882801 96.6491Z" fill="#D5C0FF"/>
<path d="M0.8828 112.464C0.395236 112.464 -4.89878e-06 112.071 -4.87757e-06 111.586C-4.85636e-06 111.101 0.395236 110.707 0.8828 110.707C1.37036 110.707 1.76562 111.101 1.76562 111.586C1.76562 112.071 1.37036 112.464 0.8828 112.464Z" fill="#D5C0FF"/>
<path d="M0.882799 128.28C0.395235 128.28 -5.59009e-06 127.886 -5.56888e-06 127.401C-5.54767e-06 126.916 0.395235 126.522 0.882799 126.522C1.37036 126.522 1.76562 126.916 1.76562 127.401C1.76562 127.886 1.37036 128.28 0.882799 128.28Z" fill="#D5C0FF"/>
<path d="M0.882799 144.095C0.395234 144.095 -6.2814e-06 143.702 -6.26019e-06 143.216C-6.23897e-06 142.731 0.395235 142.338 0.882799 142.338C1.37036 142.338 1.76562 142.731 1.76562 143.216C1.76562 143.702 1.37036 144.095 0.882799 144.095Z" fill="#D5C0FF"/>
<path d="M0.882798 159.91C0.395234 159.91 -6.97271e-06 159.517 -6.95149e-06 159.032C-6.93028e-06 158.546 0.395234 158.153 0.882798 158.153C1.37036 158.153 1.76562 158.546 1.76562 159.032C1.76562 159.517 1.37036 159.91 0.882798 159.91Z" fill="#D5C0FF"/>
<path d="M0.882797 175.726C0.395233 175.726 -7.66402e-06 175.332 -7.6428e-06 174.847C-7.62159e-06 174.362 0.395233 173.968 0.882797 173.968C1.37036 173.968 1.76562 174.362 1.76562 174.847C1.76562 175.332 1.37036 175.726 0.882797 175.726Z" fill="#D5C0FF"/>
<path d="M0.882796 191.541C0.395232 191.541 -8.35532e-06 191.148 -8.33411e-06 190.662C-8.3129e-06 190.177 0.395232 189.784 0.882797 189.784C1.37036 189.784 1.76562 190.177 1.76562 190.662C1.76562 191.148 1.37036 191.541 0.882796 191.541Z" fill="#D5C0FF"/>
<path d="M0.882796 207.356C0.395232 207.356 -9.04663e-06 206.963 -9.02542e-06 206.478C-9.00421e-06 205.992 0.395232 205.599 0.882796 205.599C1.37036 205.599 1.76562 205.992 1.76562 206.478C1.76562 206.963 1.37036 207.356 0.882796 207.356Z" fill="#D5C0FF"/>
<path d="M0.882795 223.172C0.395231 223.172 -9.73794e-06 222.778 -9.71673e-06 222.293C-9.69552e-06 221.808 0.395231 221.414 0.882795 221.414C1.37036 221.414 1.76562 221.808 1.76562 222.293C1.76562 222.778 1.37036 223.172 0.882795 223.172Z" fill="#D5C0FF"/>
<path d="M0.882794 238.987C0.39523 238.987 -1.04293e-05 238.593 -1.0408e-05 238.108C-1.03868e-05 237.623 0.39523 237.23 0.882795 237.23C1.37036 237.23 1.76561 237.623 1.76561 238.108C1.76561 238.593 1.37036 238.987 0.882794 238.987Z" fill="#D5C0FF"/>
<path d="M0.882794 254.802C0.39523 254.802 -1.11206e-05 254.409 -1.10993e-05 253.923C-1.10781e-05 253.438 0.39523 253.045 0.882794 253.045C1.37036 253.045 1.76561 253.438 1.76561 253.923C1.76561 254.409 1.37036 254.802 0.882794 254.802Z" fill="#D5C0FF"/>
<path d="M0.882793 270.617C0.395229 270.617 -1.18119e-05 270.224 -1.17907e-05 269.739C-1.17694e-05 269.254 0.395229 268.86 0.882793 268.86C1.37036 268.86 1.76561 269.254 1.76561 269.739C1.76561 270.224 1.37036 270.617 0.882793 270.617Z" fill="#D5C0FF"/>
<path d="M0.882792 286.433C0.395228 286.433 -1.25032e-05 286.039 -1.2482e-05 285.554C-1.24608e-05 285.069 0.395228 284.675 0.882792 284.675C1.37036 284.675 1.76561 285.069 1.76561 285.554C1.76561 286.039 1.37036 286.433 0.882792 286.433Z" fill="#D5C0FF"/>
<path d="M0.882792 302.248C0.395228 302.248 -1.31945e-05 301.855 -1.31733e-05 301.369C-1.31521e-05 300.884 0.395228 300.491 0.882792 300.491C1.37036 300.491 1.76561 300.884 1.76561 301.369C1.76561 301.855 1.37036 302.248 0.882792 302.248Z" fill="#D5C0FF"/>
<path d="M0.882791 318.063C0.395227 318.063 -1.38858e-05 317.67 -1.38646e-05 317.185C-1.38434e-05 316.699 0.395227 316.306 0.882791 316.306C1.37036 316.306 1.76561 316.699 1.76561 317.185C1.76561 317.67 1.37036 318.063 0.882791 318.063Z" fill="#D5C0FF"/>
<path d="M0.88279 333.879C0.395226 333.879 -1.45771e-05 333.485 -1.45559e-05 333C-1.45347e-05 332.515 0.395226 332.121 0.88279 332.121C1.37035 332.121 1.76561 332.515 1.76561 333C1.76561 333.485 1.37035 333.879 0.88279 333.879Z" fill="#D5C0FF"/>
<path d="M0.88279 349.694C0.395225 349.694 -1.52684e-05 349.301 -1.52472e-05 348.815C-1.5226e-05 348.33 0.395226 347.937 0.88279 347.937C1.37035 347.937 1.76561 348.33 1.76561 348.815C1.76561 349.301 1.37035 349.694 0.88279 349.694Z" fill="#D5C0FF"/>
<path d="M0.882789 365.509C0.395225 365.509 -1.59597e-05 365.116 -1.59385e-05 364.631C-1.59173e-05 364.145 0.395225 363.752 0.882789 363.752C1.37035 363.752 1.76561 364.145 1.76561 364.631C1.76561 365.116 1.37035 365.509 0.882789 365.509Z" fill="#D5C0FF"/>
<path d="M0.882788 381.325C0.395224 381.325 -1.6651e-05 380.931 -1.66298e-05 380.446C-1.66086e-05 379.961 0.395224 379.567 0.882788 379.567C1.37035 379.567 1.76561 379.961 1.76561 380.446C1.76561 380.931 1.37035 381.325 0.882788 381.325Z" fill="#D5C0FF"/>
<path d="M0.882788 397.14C0.395223 397.14 -1.73423e-05 396.746 -1.73211e-05 396.261C-1.72999e-05 395.776 0.395224 395.383 0.882788 395.383C1.37035 395.383 1.76561 395.776 1.76561 396.261C1.76561 396.746 1.37035 397.14 0.882788 397.14Z" fill="#D5C0FF"/>
<path d="M0.882787 412.955C0.395223 412.955 -1.80336e-05 412.562 -1.80124e-05 412.077C-1.79912e-05 411.591 0.395223 411.198 0.882787 411.198C1.37035 411.198 1.76561 411.591 1.76561 412.077C1.76561 412.562 1.37035 412.955 0.882787 412.955Z" fill="#D5C0FF"/>
<path d="M0.882786 428.77C0.395222 428.77 -1.8725e-05 428.377 -1.87037e-05 427.892C-1.86825e-05 427.407 0.395222 427.013 0.882786 427.013C1.37035 427.013 1.76561 427.407 1.76561 427.892C1.76561 428.377 1.37035 428.77 0.882786 428.77Z" fill="#D5C0FF"/>
<path d="M0.882785 444.586C0.395221 444.586 -1.94163e-05 444.192 -1.93951e-05 443.707C-1.93738e-05 443.222 0.395221 442.829 0.882786 442.829C1.37035 442.829 1.76561 443.222 1.76561 443.707C1.76561 444.192 1.37035 444.586 0.882785 444.586Z" fill="#D5C0FF"/>
<path d="M0.882785 460.401C0.395221 460.401 -2.01076e-05 460.008 -2.00864e-05 459.522C-2.00652e-05 459.037 0.395221 458.644 0.882785 458.644C1.37035 458.644 1.7656 459.037 1.7656 459.522C1.7656 460.008 1.37035 460.401 0.882785 460.401Z" fill="#D5C0FF"/>
<path d="M0.882784 476.216C0.39522 476.216 -2.07989e-05 475.823 -2.07777e-05 475.338C-2.07565e-05 474.853 0.39522 474.459 0.882784 474.459C1.37035 474.459 1.7656 474.853 1.7656 475.338C1.7656 475.823 1.37035 476.216 0.882784 476.216Z" fill="#D5C0FF"/>
<path d="M0.882783 492.032C0.395219 492.032 -2.14902e-05 491.638 -2.1469e-05 491.153C-2.14478e-05 490.668 0.395219 490.274 0.882783 490.274C1.37035 490.274 1.7656 490.668 1.7656 491.153C1.7656 491.638 1.37035 492.032 0.882783 492.032Z" fill="#D5C0FF"/>
<path d="M0.882783 507.847C0.395219 507.847 -2.21815e-05 507.454 -2.21603e-05 506.968C-2.21391e-05 506.483 0.395219 506.09 0.882783 506.09C1.37035 506.09 1.7656 506.483 1.7656 506.968C1.7656 507.454 1.37035 507.847 0.882783 507.847Z" fill="#D5C0FF"/>
</svg>
